<?xml version="1.0" standalone="no"?>
<!DOCTYPE svg PUBLIC "-//W3C//DTD SVG 20010904//EN"
 "http://www.w3.org/TR/2001/REC-SVG-20010904/DTD/svg10.dtd">
<svg version="1.0" xmlns="http://www.w3.org/2000/svg"
 width="710.000000pt" height="710.000000pt" viewBox="0 0 710.000000 710.000000"
 preserveAspectRatio="xMidYMid meet">
<metadata>
Created by potrace 1.14, written by Peter Selinger 2001-2017
</metadata>
<g transform="translate(0.000000,710.000000) scale(0.100000,-0.100000)"
fill="#000000" stroke="none">
<path d="M0 3550 l0 -3550 3550 0 3550 0 0 3550 0 3550 -3550 0 -3550 0 0
-3550z m3575 2800 c1082 -375 1166 -405 1139 -416 -53 -22 -2316 -804 -2325
-804 -5 0 -9 334 -9 816 0 675 2 815 13 812 8 -2 539 -185 1182 -408z m1170
-2458 c-3 -3 -536 179 -1186 404 -829 287 -1175 411 -1162 417 10 4 542 189
1183 411 l1165 403 3 -815 c1 -448 0 -817 -3 -820z m-2817 -1614 l-3 -663 -62
-3 -63 -3 0 666 0 665 65 0 65 0 -2 -662z m192 412 l0 -250 265 0 265 0 0 250
0 250 65 0 65 0 0 -315 0 -315 -395 0 -395 0 0 315 0 315 65 0 65 0 0 -250z
m860 -415 l0 -666 -62 3 -63 3 -3 663 -2 662 65 0 65 0 0 -665z m1290 0 l0
-666 -62 3 -63 3 -3 663 -2 662 65 0 65 0 0 -665z m200 415 l0 -250 265 0 265
0 0 250 0 250 65 0 65 0 0 -315 0 -315 -395 0 -395 0 0 315 0 315 65 0 65 0 0
-250z m850 -415 l0 -665 -60 0 -60 0 0 665 0 665 60 0 60 0 0 -665z m-2540
-350 l0 -316 -62 3 -63 3 -3 253 -2 252 -265 0 -265 0 0 -255 0 -256 -62 3
-63 3 -3 313 -2 312 395 0 395 0 0 -315z m2350 0 l0 -316 -62 3 -63 3 -3 253
-2 252 -265 0 -265 0 0 -255 0 -256 -62 3 -63 3 -3 313 -2 312 395 0 395 0 0
-315z m-3292 -1047 c7 -7 12 -38 12 -70 l0 -58 59 0 59 0 4 65 c4 70 9 81 33
72 23 -9 23 -305 -1 -314 -24 -9 -34 15 -34 80 l0 57 -60 0 -60 0 0 -57 c0
-65 -10 -89 -34 -80 -14 5 -16 28 -16 155 0 163 5 183 38 150z m570 -15 c33
-24 72 -97 72 -135 0 -81 -67 -149 -153 -155 -103 -8 -171 62 -164 170 3 47 9
63 33 88 16 17 43 38 59 45 40 19 119 12 153 -13z m240 15 c8 -8 12 -49 12
-117 0 -115 11 -141 58 -141 52 0 62 23 62 139 0 111 7 138 34 128 13 -5 16
-25 16 -119 0 -122 -13 -163 -61 -188 -37 -20 -100 -6 -131 30 -27 29 -28 34
-28 148 0 132 6 152 38 120z m536 3 c4 -5 3 -16 0 -25 -5 -12 -21 -16 -74 -16
-66 0 -100 -14 -100 -41 0 -24 42 -49 81 -49 32 0 47 -6 71 -30 26 -27 30 -36
25 -68 -4 -22 -17 -46 -33 -60 -23 -20 -35 -22 -103 -20 -68 3 -76 5 -76 23 0
18 8 20 70 23 73 3 95 13 95 43 0 26 -39 49 -83 49 -92 0 -123 122 -42 168 24
14 161 16 169 3z m184 -3 c19 -19 17 -282 -3 -298 -29 -24 -35 0 -35 149 0
162 5 182 38 149z m272 -98 l75 -104 5 105 c5 103 6 106 40 101 13 -2 13 -281
1 -301 -16 -24 -37 -5 -113 101 l-73 102 -3 -102 c-2 -82 -6 -104 -18 -109 -9
-3 -20 0 -25 8 -10 16 -12 269 -3 294 12 31 39 9 114 -95z m498 90 c38 -23 51
-48 31 -60 -8 -6 -25 -2 -45 11 -66 40 -143 12 -165 -61 -37 -124 141 -199
200 -83 16 32 16 33 -44 33 -48 0 -55 2 -55 20 0 18 7 20 80 20 l80 0 0 -33
c0 -83 -83 -152 -173 -144 -60 5 -95 30 -125 88 -43 82 -17 163 68 207 55 27
105 28 148 2z m260 8 c7 -7 12 -38 12 -70 l0 -58 60 0 60 0 0 58 c0 64 10 88
34 79 14 -5 16 -28 16 -157 0 -129 -2 -152 -16 -157 -24 -9 -34 15 -34 80 l0
57 -59 0 -59 0 -4 -65 c-4 -70 -9 -81 -33 -72 -13 5 -15 30 -15 155 0 163 5
183 38 150z m366 6 c13 -5 16 -25 16 -117 0 -122 10 -147 60 -147 48 0 58 24
62 147 1 61 6 115 10 118 4 4 14 5 23 2 12 -5 15 -28 15 -128 l0 -121 -34 -34
c-40 -40 -83 -45 -134 -14 -44 27 -52 54 -52 179 0 119 2 127 34 115z m499 -6
c12 -6 27 -18 34 -27 15 -19 17 -80 4 -100 -6 -10 -5 -22 5 -35 24 -34 18 -90
-13 -120 -25 -25 -31 -27 -107 -24 l-81 3 -3 135 c-4 186 -6 180 74 180 36 0
75 -5 87 -12z"/>
<path d="M2244 806 c-75 -75 -27 -186 81 -186 73 0 125 92 91 159 -19 36 -62
61 -107 61 -22 0 -41 -10 -65 -34z"/>
<path d="M5150 796 l0 -46 40 0 c51 0 84 29 71 62 -7 19 -17 23 -60 26 l-51 3
0 -45z"/>
<path d="M5150 665 l0 -45 49 0 c47 0 81 17 81 41 0 25 -42 49 -85 49 l-45 0
0 -45z"/>
</g>
</svg>
